<svg viewBox="0 0 480 240" xmlns="http://www.w3.org/2000/svg" preserveAspectRatio="xMidYMid slice" role="img" aria-label="Desert backdrop">
  <defs>
    <linearGradient id="sky" x1="0" y1="0" x2="0" y2="1">
      <stop offset="0" stop-color="#fde3c2"/>
      <stop offset="0.55" stop-color="#f8c79a"/>
      <stop offset="1" stop-color="#f0a874"/>
    </linearGradient>
  </defs>
  <rect width="480" height="240" fill="url(#sky)"/>
  <circle cx="360" cy="70" r="46" fill="#ffe9cf" opacity="0.6"/>
  <path d="M0 152 L70 100 L150 142 L240 86 L330 138 L420 98 L480 132 L480 240 L0 240 Z" fill="#e0a878" opacity="0.75"/>
  <path d="M0 176 L80 134 L168 180 L258 130 L360 182 L480 142 L480 240 L0 240 Z" fill="#c9824f" opacity="0.85"/>
  <path d="M0 206 L120 170 L228 210 L344 168 L480 200 L480 240 L0 240 Z" fill="#a8602f"/>
  <g fill="#6f8a4e">
    <rect x="58" y="150" width="13" height="90" rx="6.5"/>
    <path d="M58 184 h-10 a8 8 0 0 0 -8 8 v16 a5 5 0 0 0 10 0 v-12 a3 3 0 0 1 3 -3 h5 z"/>
    <path d="M71 174 h9 a8 8 0 0 1 8 8 v22 a5 5 0 0 1 -10 0 v-18 a3 3 0 0 0 -3 -3 h-4 z"/>
  </g>
  <g fill="#5f7a44" opacity="0.9">
    <rect x="300" y="186" width="9" height="54" rx="4.5"/>
    <path d="M300 202 h-7 a6 6 0 0 0 -6 6 v11 a4 4 0 0 0 8 0 v-8 a2 2 0 0 1 2 -2 h3 z"/>
  </g>
</svg>